<?xml version="1.0" encoding="UTF-8" standalone="no"?>
<!-- Created with Inkscape (http://www.inkscape.org/) -->

<svg
   width="20.895294mm"
   height="21.862606mm"
   viewBox="0 0 20.895294 21.862606"
   version="1.1"
   id="svg1"
   xmlns:xlink="http://www.w3.org/1999/xlink"
   xmlns="http://www.w3.org/2000/svg"
   xmlns:svg="http://www.w3.org/2000/svg">
  <defs
     id="defs1">
    <pattern
       xlink:href="#Tiles"
       preserveAspectRatio="none"
       id="pattern43"
       patternTransform="matrix(0.02287348,-0.01366213,0.01372407,0.00819727,0,0)"
       x="0"
       y="0" />
    <pattern
       patternUnits="userSpaceOnUse"
       width="100"
       height="100"
       id="Tiles"
       preserveAspectRatio="xMidYMid"
       patternTransform="translate(0,0) scale(0.2,0.2)"
       style="fill:#7e8692">
      <g
   id="g9422">
        <rect
   style="fill-opacity:1;stroke:none"
   width="100"
   height="100"
   x="0"
   y="0"
   id="rect2996" />

        <path
   id="rect7383"
   style="fill:#ffffff;fill-opacity:0.42487;stroke-width:0"
   d="M 60,40 50,50 V 0 H 60 Z M 50,50 v 10 40 H 60 V 60 h 40 V 50 H 60 Z m 0,0 -10,10 H 0 V 50 Z" />

        <path
   id="rect7385"
   style="fill:#000000;fill-opacity:0.300518;stroke-width:0"
   d="M 40,60 50,50 v 50 H 40 Z M 100,40 V 50 H 50 L 60,40 Z M 40,0 V 40 H 0 V 50 H 40 50 V 40 0 Z" />

      </g>

    </pattern>
  </defs>
  <path
     id="path10"
     style="color:#000000;fill:url(#pattern43);fill-opacity:1;-inkscape-stroke:none"
     d="M 6.7122518,0.03772379 V 11.88868 c -0.6312835,0.07402 -1.2292593,0.199397 -1.7792196,0.381888 l -0.00259,0.0015 h -0.00259 c -0.1614955,0.0542 -0.2563674,0.173377 -0.4092692,0.236684 V 8.6718222 H 0.02273763 V 21.870499 H 4.5185873 v -5.487003 c 0,-0.727707 0.2965675,-1.210952 0.8288899,-1.562179 0.5315856,-0.350737 1.1814503,-0.519348 2.2313883,-0.519348 0.8361273,0 1.2357541,0.119723 1.5544272,0.362252 0.317331,0.241511 0.5684407,0.705035 0.5684407,1.435571 v 5.770707 h 4.4834476 v -5.817215 c 0,-1.274772 -0.452562,-2.330613 -1.51412,-3.094385 -0.409327,-0.296348 -0.903583,-0.534716 -1.46296,-0.716236 V 7.7493977 c 0,-0.7277063 0.296568,-1.2094028 0.82889,-1.5606282 0.531586,-0.3507393 1.18145,-0.5208984 2.231389,-0.5208984 0.836125,0 1.235751,0.1212711 1.554427,0.3638021 0.317331,0.2415096 0.56844,0.7034853 0.56844,1.4340209 v 5.7722579 h 4.486032 V 7.4207357 c 0,-1.2753351 -0.451554,-2.3320834 -1.51412,-3.0959351 l -0.0026,-0.00155 C 18.297908,3.5549957 16.664338,3.1744833 14.793929,3.1744833 c -1.15252,0 -2.230489,0.1513226 -3.171383,0.4635375 l -0.0026,0.00155 h -0.0026 c -0.16159,0.054222 -0.25629,0.17333 -0.40927,0.2366749 V 0.03772379 Z M 18.634521,15.486393 c -1.221393,0 -2.228288,1.0151 -2.228288,2.234489 0,1.21939 1.006895,2.233973 2.228288,2.233973 1.221393,0 2.228806,-1.014583 2.228806,-2.233973 0,-1.219389 -1.007413,-2.234489 -2.228806,-2.234489 z" />
</svg>
