<?xml version="1.0" encoding="UTF-8" standalone="no"?>
<!-- Created with Inkscape (http://www.inkscape.org/) -->

<svg
   width="20.895294mm"
   height="21.862606mm"
   viewBox="0 0 20.895294 21.862606"
   version="1.1"
   id="svg1"
   xmlns="http://www.w3.org/2000/svg"
   xmlns:svg="http://www.w3.org/2000/svg">
  <defs
     id="defs1" />
  <path
     id="letters"
     style="color:#000000;fill:#e3e3e3;fill-opacity:1;-inkscape-stroke:none"
     d="M 6.7122518,0.03772379 V 11.88868 c -0.6312842,0.07402 -1.2292587,0.199396 -1.7792196,0.381888 l -0.00259,0.0015 h -0.00259 c -0.1614957,0.0542 -0.2563671,0.173377 -0.4092692,0.236684 V 8.6718222 H 0.02273763 V 21.870499 H 4.5185873 v -5.487003 c 0,-0.727708 0.296567,-1.210952 0.8288899,-1.562179 0.5315861,-0.350738 1.1814492,-0.519348 2.2313883,-0.519348 0.836128,0 1.2357538,0.119722 1.5544272,0.362252 0.3173314,0.241511 0.5684407,0.705034 0.5684407,1.435571 v 5.770707 h 4.4834476 v -5.817215 c 0,-1.274773 -0.452561,-2.330612 -1.51412,-3.094385 -0.409328,-0.296349 -0.903583,-0.534716 -1.46296,-0.716236 V 7.7493977 c 0,-0.7277072 0.296567,-1.2094024 0.82889,-1.5606282 0.531586,-0.3507396 1.181449,-0.5208984 2.231389,-0.5208984 0.836126,0 1.235751,0.1212708 1.554427,0.3638021 0.317331,0.2415099 0.56844,0.7034845 0.56844,1.4340209 v 5.7722579 h 4.486032 V 7.4207357 c 0,-1.2753364 -0.451553,-2.3320826 -1.51412,-3.0959351 l -0.0026,-0.00155 C 18.297907,3.5549949 16.66434,3.1744833 14.793929,3.1744833 c -1.152521,0 -2.230489,0.1513222 -3.171383,0.4635375 l -0.0026,0.00155 h -0.0026 c -0.161591,0.054222 -0.25629,0.1733299 -0.40927,0.2366749 V 0.03772379 Z" />
  <path
     id="dot"
     style="color:#000000;fill:#fa62ed;fill-opacity:1;-inkscape-stroke:none"
     d="m 18.634521,15.486393 c -1.221394,0 -2.228287,1.015099 -2.228287,2.234489 0,1.219391 1.006893,2.233972 2.228287,2.233972 1.221394,0 2.228805,-1.014581 2.228805,-2.233972 0,-1.21939 -1.007411,-2.234489 -2.228805,-2.234489 z" />
</svg>
